<?xml version="1.0" encoding="utf-8"?>
<!-- Generator: Adobe Illustrator 18.0.0, SVG Export Plug-In . SVG Version: 6.00 Build 0)  -->
<!DOCTYPE svg PUBLIC "-//W3C//DTD SVG 1.1//EN" "http://www.w3.org/Graphics/SVG/1.1/DTD/svg11.dtd">
<svg version="1.1" id="Layer_1" xmlns="http://www.w3.org/2000/svg" xmlns:xlink="http://www.w3.org/1999/xlink" x="0px" y="0px"
	 width="200px" height="200px" viewBox="0 0 200 200" enable-background="new 0 0 200 200" xml:space="preserve">
<g>
	<g>
		<defs>
			<rect id="SVGID_1_" y="0" width="200" height="200"/>
		</defs>
		<clipPath id="SVGID_2_">
			<use xlink:href="#SVGID_1_"  overflow="visible"/>
		</clipPath>
		<polygon clip-path="url(#SVGID_2_)" fill="#71C6C6" points="95,0 90.4,6.6 84.5,1.1 80.7,8.1 74.3,3.2 71.2,10.7 64.3,6.4 
			62,14.2 54.7,10.7 53.2,18.6 45.6,15.9 45,23.9 37.1,22.1 37.3,30.1 29.3,29.1 30.4,37 22.3,36.8 24.2,44.7 16.1,45.3 18.8,52.9 
			10.9,54.4 14.3,61.6 6.6,63.9 10.8,70.8 3.3,73.9 8.2,80.3 1.1,84.1 6.7,90 0,94.6 6.1,99.8 0,105 6.6,109.6 1.1,115.5 8.1,119.3 
			3.2,125.7 10.7,128.8 6.4,135.7 14.2,138 10.7,145.3 18.6,146.8 15.9,154.4 23.9,155 22.1,162.9 30.1,162.7 29.1,170.7 37,169.6 
			36.8,177.7 44.7,175.8 45.3,183.9 52.9,181.2 54.4,189.1 61.6,185.7 63.9,193.4 70.8,189.2 73.9,196.7 80.3,191.8 84.1,198.9 
			90,193.3 94.6,200 99.8,193.9 105,200 109.6,193.4 115.5,198.9 119.3,191.9 125.7,196.8 128.8,189.3 135.7,193.6 138,185.8 
			145.3,189.3 146.8,181.4 154.4,184.1 155,176.1 162.8,177.9 162.7,169.9 170.7,170.9 169.6,163 177.7,163.2 175.8,155.3 
			183.9,154.7 181.2,147.1 189.1,145.6 185.7,138.4 193.4,136.1 189.2,129.2 196.7,126.1 191.8,119.7 198.9,115.9 193.3,110 
			200,105.4 193.9,100.2 200,95 193.4,90.4 198.9,84.5 191.9,80.7 196.8,74.3 189.3,71.2 193.6,64.3 185.8,62 189.3,54.7 
			181.4,53.2 184.1,45.6 176.1,45 177.9,37.2 169.9,37.3 170.9,29.3 163,30.4 163.2,22.3 155.3,24.2 154.7,16.1 147.1,18.8 
			145.6,10.9 138.4,14.3 136.1,6.6 129.2,10.8 126.1,3.3 119.7,8.2 115.9,1.1 110,6.7 105.4,0 100.2,6.1 		"/>
		<g clip-path="url(#SVGID_2_)">
			<defs>
				<rect id="SVGID_3_" y="0" width="200" height="200"/>
			</defs>
			<clipPath id="SVGID_4_">
				<use xlink:href="#SVGID_3_"  overflow="visible"/>
			</clipPath>
			<path clip-path="url(#SVGID_4_)" fill="#FFFFFF" d="M47.5,100c0-29,23.5-52.5,52.5-52.5c29,0,52.5,23.5,52.5,52.5
				c0,29-23.5,52.5-52.5,52.5C71,152.5,47.5,129,47.5,100"/>
			<path clip-path="url(#SVGID_4_)" fill="#FFFFFF" d="M10,100.4l0-0.4v0c0-1.1,0-2.2,0.1-3.3c0-0.5,0.4-0.8,0.9-0.8
				c0.5,0,0.8,0.4,0.8,0.9c0,1.1-0.1,2.2-0.1,3.3v0l0,0.4c0,0.5-0.4,0.8-0.8,0.8C10.4,101.3,10,100.9,10,100.4L10,100.4z
				 M10.3,107.2c-0.1-1.1-0.2-2.2-0.2-3.4c0-0.5,0.3-0.8,0.8-0.9c0.5,0,0.8,0.3,0.9,0.8c0,1.1,0.1,2.2,0.2,3.3
				c0,0.5-0.3,0.9-0.8,0.9C10.7,108,10.3,107.6,10.3,107.2 M11.1,113.8c-0.2-1.1-0.3-2.2-0.5-3.3c-0.1-0.5,0.3-0.9,0.7-0.9
				c0.5-0.1,0.9,0.3,0.9,0.7c0.1,1.1,0.3,2.2,0.4,3.3c0.1,0.5-0.2,0.9-0.7,1C11.6,114.6,11.1,114.3,11.1,113.8 M12.3,120.4
				c-0.3-1.1-0.5-2.2-0.7-3.3c-0.1-0.5,0.2-0.9,0.7-1c0.5-0.1,0.9,0.2,1,0.7c0.2,1.1,0.4,2.2,0.7,3.2c0.1,0.4-0.2,0.9-0.6,1
				C12.9,121.2,12.4,120.9,12.3,120.4 M14.1,126.9c-0.3-1.1-0.6-2.1-0.9-3.2c-0.1-0.4,0.1-0.9,0.6-1c0.4-0.1,0.9,0.1,1,0.6
				c0.3,1.1,0.6,2.1,0.9,3.2c0.1,0.4-0.1,0.9-0.5,1C14.7,127.6,14.2,127.4,14.1,126.9L14.1,126.9z M16.3,133.3
				c-0.4-1-0.8-2.1-1.2-3.1c-0.2-0.4,0.1-0.9,0.5-1.1c0.4-0.2,0.9,0.1,1.1,0.5c0.4,1,0.8,2.1,1.2,3.1c0.2,0.4,0,0.9-0.5,1.1
				C17,133.9,16.5,133.7,16.3,133.3z M19.1,139.4c-0.5-1-1-2-1.4-3c-0.2-0.4,0-0.9,0.4-1.1c0.4-0.2,0.9,0,1.1,0.4c0.4,1,0.9,2,1.4,3
				c0.2,0.4,0,0.9-0.4,1.1C19.8,140,19.3,139.8,19.1,139.4 M22.2,145.3c-0.6-1-1.1-1.9-1.6-2.9c-0.2-0.4-0.1-0.9,0.3-1.1
				c0.4-0.2,0.9-0.1,1.1,0.3c0.5,1,1.1,1.9,1.6,2.9c0.2,0.4,0.1,0.9-0.3,1.1C23,145.9,22.5,145.7,22.2,145.3 M25.8,151
				c-0.6-0.9-1.3-1.9-1.9-2.8c-0.2-0.4-0.1-0.9,0.3-1.1c0.4-0.2,0.9-0.1,1.2,0.3c0.6,0.9,1.2,1.8,1.8,2.7c0.3,0.4,0.2,0.9-0.2,1.2
				C26.6,151.5,26.1,151.4,25.8,151z M29.8,156.4c-0.7-0.9-1.4-1.8-2.1-2.7c-0.3-0.4-0.2-0.9,0.2-1.2c0.4-0.3,0.9-0.2,1.2,0.2
				c0.7,0.9,1.3,1.8,2,2.6c0.3,0.4,0.2,0.9-0.1,1.2C30.7,156.8,30.1,156.7,29.8,156.4 M34.3,161.5c-0.8-0.8-1.5-1.7-2.3-2.5
				c-0.3-0.3-0.3-0.9,0.1-1.2c0.3-0.3,0.9-0.3,1.2,0.1c0.7,0.8,1.5,1.6,2.2,2.5c0.3,0.3,0.3,0.9,0,1.2
				C35.1,161.8,34.6,161.8,34.3,161.5 M39,166.2c-0.8-0.8-1.6-1.5-2.4-2.3c-0.3-0.3-0.3-0.9,0-1.2c0.3-0.3,0.9-0.3,1.2,0
				c0.8,0.8,1.6,1.5,2.4,2.3c0.3,0.3,0.4,0.8,0,1.2S39.4,166.5,39,166.2 M44.1,170.6c-0.9-0.7-1.7-1.4-2.6-2.1
				c-0.4-0.3-0.4-0.8-0.1-1.2c0.3-0.3,0.8-0.4,1.2-0.1c0.8,0.7,1.7,1.4,2.5,2.1c0.4,0.3,0.4,0.8,0.1,1.2
				C45,170.8,44.5,170.9,44.1,170.6 M49.6,174.6c-0.9-0.6-1.8-1.3-2.8-1.9c-0.4-0.3-0.5-0.8-0.2-1.2c0.3-0.4,0.8-0.5,1.2-0.2
				c0.9,0.7,1.8,1.3,2.7,1.9c0.4,0.3,0.5,0.8,0.2,1.2C50.5,174.7,49.9,174.8,49.6,174.6 M55.3,178.1c-1-0.6-1.9-1.1-2.9-1.7
				c-0.4-0.2-0.5-0.8-0.3-1.1c0.2-0.4,0.8-0.5,1.1-0.3c0.9,0.6,1.9,1.1,2.8,1.7c0.4,0.2,0.5,0.7,0.3,1.1S55.7,178.3,55.3,178.1
				 M61.2,181.3c-1-0.5-2-1-3-1.5c-0.4-0.2-0.6-0.7-0.4-1.1c0.2-0.4,0.7-0.6,1.1-0.4c1,0.5,2,1,3,1.5c0.4,0.2,0.6,0.7,0.4,1.1
				C62.2,181.3,61.7,181.4,61.2,181.3z M67.4,183.9c-1-0.4-2.1-0.8-3.1-1.3c-0.4-0.2-0.6-0.7-0.4-1.1c0.2-0.4,0.7-0.6,1.1-0.4
				c1,0.4,2,0.9,3.1,1.3c0.4,0.2,0.6,0.6,0.5,1.1C68.3,183.9,67.9,184.1,67.4,183.9 M73.8,186.1c-1.1-0.3-2.1-0.7-3.2-1
				c-0.4-0.2-0.7-0.6-0.5-1.1c0.2-0.4,0.6-0.7,1.1-0.5c1,0.4,2.1,0.7,3.1,1c0.4,0.1,0.7,0.6,0.6,1C74.7,186,74.2,186.3,73.8,186.1
				 M80.3,187.8c-1.1-0.2-2.2-0.5-3.3-0.8c-0.4-0.1-0.7-0.6-0.6-1c0.1-0.4,0.6-0.7,1-0.6c1.1,0.3,2.1,0.5,3.2,0.8
				c0.4,0.1,0.7,0.5,0.6,1C81.2,187.7,80.8,187.9,80.3,187.8 M86.9,189.1c-1.1-0.2-2.2-0.3-3.3-0.5c-0.5-0.1-0.8-0.5-0.7-1
				c0.1-0.5,0.5-0.8,1-0.7c1.1,0.2,2.2,0.4,3.3,0.5c0.5,0.1,0.8,0.5,0.7,0.9C87.8,188.8,87.4,189.1,86.9,189.1 M93.6,189.8
				c-1.1-0.1-2.2-0.2-3.3-0.3c-0.5,0-0.8-0.5-0.7-0.9c0-0.5,0.5-0.8,0.9-0.7c1.1,0.1,2.2,0.2,3.3,0.3c0.5,0,0.8,0.4,0.8,0.9
				C94.5,189.5,94.1,189.8,93.6,189.8 M100.3,190l-0.3,0h0c-1,0-2,0-3-0.1c-0.5,0-0.8-0.4-0.8-0.9c0-0.5,0.4-0.8,0.9-0.8
				c1,0,2,0,3,0h0l0.3,0c0.5,0,0.8,0.4,0.8,0.8C101.2,189.6,100.8,190,100.3,190z M107.1,189.7c-1.1,0.1-2.2,0.2-3.4,0.2
				c-0.5,0-0.8-0.3-0.9-0.8c0-0.5,0.3-0.8,0.8-0.9c1.1,0,2.2-0.1,3.3-0.2c0.5,0,0.9,0.3,0.9,0.8
				C107.9,189.3,107.5,189.7,107.1,189.7z M113.7,189c-1.1,0.2-2.2,0.3-3.3,0.4c-0.5,0.1-0.9-0.3-0.9-0.7c-0.1-0.5,0.3-0.9,0.7-0.9
				c1.1-0.1,2.2-0.3,3.3-0.4c0.5-0.1,0.9,0.2,1,0.7C114.5,188.5,114.2,188.9,113.7,189 M120.3,187.7c-1.1,0.3-2.2,0.5-3.3,0.7
				c-0.5,0.1-0.9-0.2-1-0.7c-0.1-0.5,0.2-0.9,0.7-1c1.1-0.2,2.2-0.4,3.2-0.7c0.4-0.1,0.9,0.2,1,0.6
				C121.1,187.1,120.8,187.6,120.3,187.7 M126.8,185.9c-1.1,0.3-2.1,0.6-3.2,0.9c-0.4,0.1-0.9-0.1-1-0.6c-0.1-0.4,0.1-0.9,0.6-1
				c1.1-0.3,2.1-0.6,3.2-0.9c0.4-0.1,0.9,0.1,1,0.5C127.5,185.3,127.3,185.8,126.8,185.9 M133.2,183.7c-1,0.4-2.1,0.8-3.1,1.2
				c-0.4,0.2-0.9-0.1-1.1-0.5c-0.2-0.4,0.1-0.9,0.5-1.1c1-0.4,2.1-0.8,3.1-1.2c0.4-0.2,0.9,0,1.1,0.5
				C133.8,183,133.6,183.5,133.2,183.7 M139.3,181c-1,0.5-2,1-3,1.4c-0.4,0.2-0.9,0-1.1-0.4c-0.2-0.4,0-0.9,0.4-1.1
				c1-0.4,2-0.9,3-1.4c0.4-0.2,0.9,0,1.1,0.4S139.7,180.8,139.3,181 M145.2,177.8c-1,0.6-1.9,1.1-2.9,1.6c-0.4,0.2-0.9,0.1-1.1-0.3
				c-0.2-0.4-0.1-0.9,0.3-1.1c1-0.5,1.9-1.1,2.9-1.6c0.4-0.2,0.9-0.1,1.1,0.3C145.8,177.1,145.6,177.6,145.2,177.8 M150.9,174.2
				c-0.9,0.6-1.9,1.3-2.8,1.9c-0.4,0.2-0.9,0.1-1.1-0.3c-0.2-0.4-0.1-0.9,0.3-1.1c0.9-0.6,1.8-1.2,2.8-1.8c0.4-0.3,0.9-0.2,1.2,0.2
				C151.4,173.5,151.3,174,150.9,174.2 M156.3,170.2c-0.9,0.7-1.8,1.4-2.7,2.1c-0.4,0.3-0.9,0.2-1.2-0.2c-0.3-0.4-0.2-0.9,0.2-1.2
				c0.9-0.7,1.8-1.3,2.6-2c0.4-0.3,0.9-0.2,1.2,0.1C156.7,169.4,156.7,169.9,156.3,170.2 M161.4,165.8c-0.8,0.8-1.7,1.5-2.5,2.2
				c-0.3,0.3-0.9,0.3-1.2-0.1c-0.3-0.3-0.3-0.9,0.1-1.2c0.8-0.7,1.7-1.5,2.5-2.2c0.3-0.3,0.9-0.3,1.2,0
				C161.7,165,161.7,165.5,161.4,165.8 M166.1,161.1c-0.8,0.8-1.5,1.6-2.3,2.4c-0.3,0.3-0.9,0.3-1.2,0c-0.3-0.3-0.3-0.9,0-1.2
				c0.8-0.8,1.5-1.6,2.3-2.4c0.3-0.3,0.8-0.4,1.2,0C166.4,160.2,166.4,160.7,166.1,161.1 M170.5,155.9c-0.7,0.9-1.4,1.7-2.1,2.6
				c-0.3,0.3-0.8,0.4-1.2,0.1c-0.3-0.3-0.4-0.8-0.1-1.2c0.7-0.8,1.4-1.7,2.1-2.5c0.3-0.4,0.8-0.4,1.2-0.1
				C170.7,155.1,170.8,155.6,170.5,155.9 M174.5,150.5c-0.6,0.9-1.3,1.8-1.9,2.7c-0.3,0.4-0.8,0.4-1.2,0.2c-0.4-0.3-0.4-0.8-0.2-1.2
				c0.7-0.9,1.3-1.8,1.9-2.7c0.3-0.4,0.8-0.5,1.2-0.2C174.7,149.6,174.7,150.1,174.5,150.5z M178.1,144.8c-0.6,1-1.1,1.9-1.7,2.9
				c-0.2,0.4-0.8,0.5-1.1,0.3c-0.4-0.2-0.5-0.8-0.3-1.1c0.6-0.9,1.2-1.9,1.7-2.8c0.2-0.4,0.7-0.5,1.1-0.3
				C178.2,143.9,178.3,144.4,178.1,144.8 M181.2,138.9c-0.5,1-1,2-1.5,3c-0.2,0.4-0.7,0.6-1.1,0.3c-0.4-0.2-0.6-0.7-0.3-1.1
				c0.5-1,1-2,1.5-3c0.2-0.4,0.7-0.6,1.1-0.4C181.2,137.9,181.4,138.4,181.2,138.9 M183.9,132.7c-0.4,1-0.8,2.1-1.3,3.1
				c-0.2,0.4-0.7,0.6-1.1,0.4c-0.4-0.2-0.6-0.7-0.4-1.1c0.4-1,0.9-2,1.3-3.1c0.2-0.4,0.7-0.6,1.1-0.5
				C183.8,131.8,184.1,132.2,183.9,132.7 M186.1,126.3c-0.3,1.1-0.7,2.1-1,3.2c-0.2,0.4-0.6,0.7-1.1,0.5c-0.4-0.2-0.7-0.6-0.5-1.1
				c0.4-1,0.7-2.1,1-3.1c0.1-0.4,0.6-0.7,1-0.6C186,125.4,186.2,125.9,186.1,126.3z M187.8,119.8c-0.2,1.1-0.5,2.2-0.8,3.3
				c-0.1,0.4-0.6,0.7-1,0.6c-0.4-0.1-0.7-0.6-0.6-1c0.3-1.1,0.5-2.1,0.8-3.2c0.1-0.4,0.5-0.7,1-0.6
				C187.6,118.9,187.9,119.3,187.8,119.8 M189,113.2c-0.2,1.1-0.3,2.2-0.6,3.3c-0.1,0.5-0.5,0.8-1,0.7c-0.5-0.1-0.8-0.5-0.7-1
				c0.2-1.1,0.4-2.2,0.5-3.3c0.1-0.5,0.5-0.8,0.9-0.7C188.8,112.3,189.1,112.7,189,113.2z M189.8,106.5c-0.1,1.1-0.2,2.2-0.3,3.3
				c0,0.5-0.5,0.8-0.9,0.7c-0.5,0-0.8-0.5-0.7-0.9c0.1-1.1,0.2-2.2,0.3-3.3c0-0.5,0.4-0.8,0.9-0.8
				C189.5,105.6,189.8,106,189.8,106.5 M190,99.8l0,0.2v0c0,1,0,2.1-0.1,3.1c0,0.5-0.4,0.8-0.9,0.8c-0.5,0-0.8-0.4-0.8-0.9
				c0-1,0.1-2,0.1-3.1v0l0-0.2c0-0.5,0.4-0.8,0.8-0.8C189.6,98.9,190,99.3,190,99.8 M189.7,93.1c0.1,1.1,0.2,2.2,0.2,3.4
				c0,0.5-0.3,0.8-0.8,0.9c-0.5,0-0.8-0.3-0.9-0.8c0-1.1-0.1-2.2-0.2-3.3c0-0.5,0.3-0.9,0.8-0.9C189.3,92.3,189.7,92.6,189.7,93.1
				L189.7,93.1z M189,86.4c0.2,1.1,0.3,2.2,0.4,3.3c0.1,0.5-0.3,0.9-0.7,0.9c-0.5,0.1-0.9-0.3-0.9-0.7c-0.1-1.1-0.3-2.2-0.4-3.3
				c-0.1-0.5,0.2-0.9,0.7-0.9C188.5,85.6,188.9,85.9,189,86.4L189,86.4z M187.7,79.8c0.3,1.1,0.5,2.2,0.7,3.3c0.1,0.5-0.2,0.9-0.7,1
				c-0.5,0.1-0.9-0.2-1-0.7c-0.2-1.1-0.4-2.2-0.7-3.2c-0.1-0.4,0.2-0.9,0.6-1C187.2,79,187.6,79.3,187.7,79.8 M186,73.3
				c0.3,1.1,0.6,2.1,0.9,3.2c0.1,0.4-0.1,0.9-0.6,1c-0.4,0.1-0.9-0.1-1-0.6c-0.3-1.1-0.6-2.1-0.9-3.2c-0.1-0.4,0.1-0.9,0.5-1
				C185.4,72.6,185.8,72.8,186,73.3z M183.7,66.9c0.4,1,0.8,2.1,1.2,3.2c0.2,0.4-0.1,0.9-0.5,1.1c-0.4,0.2-0.9-0.1-1.1-0.5
				c-0.4-1-0.8-2.1-1.2-3.1c-0.2-0.4,0-0.9,0.5-1.1C183.1,66.3,183.6,66.5,183.7,66.9z M181,60.8c0.5,1,1,2,1.4,3
				c0.2,0.4,0,0.9-0.4,1.1c-0.4,0.2-0.9,0-1.1-0.4c-0.4-1-0.9-2-1.4-3c-0.2-0.4,0-0.9,0.4-1.1C180.3,60.2,180.8,60.4,181,60.8
				 M177.9,54.9c0.6,1,1.1,1.9,1.6,2.9c0.2,0.4,0.1,0.9-0.3,1.1c-0.4,0.2-0.9,0.1-1.1-0.3c-0.5-1-1.1-1.9-1.6-2.9
				c-0.2-0.4-0.1-0.9,0.3-1.1C177.1,54.3,177.6,54.5,177.9,54.9 M174.3,49.2c0.6,0.9,1.2,1.9,1.8,2.8c0.2,0.4,0.1,0.9-0.3,1.1
				c-0.4,0.2-0.9,0.1-1.1-0.3c-0.6-0.9-1.2-1.8-1.8-2.8c-0.3-0.4-0.2-0.9,0.2-1.2C173.5,48.7,174,48.8,174.3,49.2z M170.3,43.8
				c0.7,0.9,1.4,1.8,2.1,2.7c0.3,0.4,0.2,0.9-0.2,1.2c-0.4,0.3-0.9,0.2-1.2-0.2c-0.7-0.9-1.3-1.8-2-2.6c-0.3-0.4-0.2-0.9,0.1-1.2
				C169.5,43.4,170,43.4,170.3,43.8 M165.9,38.7c0.8,0.8,1.5,1.7,2.2,2.5c0.3,0.3,0.3,0.9-0.1,1.2c-0.3,0.3-0.9,0.3-1.2-0.1
				c-0.7-0.8-1.5-1.7-2.2-2.5c-0.3-0.3-0.3-0.9,0-1.2C165.1,38.3,165.6,38.4,165.9,38.7 M161.1,33.9c0.8,0.8,1.6,1.5,2.4,2.3
				c0.3,0.3,0.3,0.9,0,1.2c-0.3,0.3-0.9,0.3-1.2,0c-0.8-0.8-1.6-1.5-2.4-2.3c-0.3-0.3-0.4-0.8,0-1.2
				C160.3,33.7,160.8,33.6,161.1,33.9L161.1,33.9z M156,29.6c0.9,0.7,1.7,1.4,2.6,2.1c0.3,0.3,0.4,0.8,0.1,1.2
				c-0.3,0.3-0.8,0.4-1.2,0.1c-0.8-0.7-1.7-1.4-2.5-2.1c-0.4-0.3-0.4-0.8-0.1-1.2C155.1,29.3,155.7,29.3,156,29.6 M150.6,25.6
				c0.9,0.6,1.8,1.3,2.7,1.9c0.4,0.3,0.4,0.8,0.2,1.2c-0.3,0.4-0.8,0.4-1.2,0.2c-0.9-0.7-1.8-1.3-2.7-1.9c-0.4-0.3-0.5-0.8-0.2-1.2
				C149.7,25.4,150.2,25.3,150.6,25.6 M144.9,22c1,0.6,1.9,1.1,2.9,1.7c0.4,0.2,0.5,0.8,0.3,1.1c-0.2,0.4-0.8,0.5-1.1,0.3
				c-0.9-0.6-1.9-1.2-2.8-1.7c-0.4-0.2-0.5-0.7-0.3-1.1C144,21.9,144.5,21.8,144.9,22 M138.9,18.8c1,0.5,2,1,3,1.5
				c0.4,0.2,0.6,0.7,0.3,1.1c-0.2,0.4-0.7,0.6-1.1,0.3c-1-0.5-2-1-3-1.5c-0.4-0.2-0.6-0.7-0.4-1.1C138,18.8,138.5,18.6,138.9,18.8
				 M132.8,16.2c1,0.4,2.1,0.8,3.1,1.3c0.4,0.2,0.6,0.7,0.4,1.1c-0.2,0.4-0.7,0.6-1.1,0.4c-1-0.4-2-0.9-3.1-1.3
				c-0.4-0.2-0.6-0.7-0.5-1.1C131.9,16.2,132.3,16,132.8,16.2 M126.4,13.9c1.1,0.3,2.1,0.7,3.2,1c0.4,0.2,0.7,0.6,0.5,1.1
				c-0.2,0.4-0.6,0.7-1.1,0.5c-1-0.4-2.1-0.7-3.1-1c-0.4-0.1-0.7-0.6-0.6-1C125.5,14,126,13.8,126.4,13.9 M119.9,12.2
				c1.1,0.2,2.2,0.5,3.3,0.8c0.4,0.1,0.7,0.6,0.6,1c-0.1,0.4-0.6,0.7-1,0.6c-1.1-0.3-2.1-0.5-3.2-0.8c-0.4-0.1-0.7-0.5-0.6-1
				C119,12.4,119.4,12.1,119.9,12.2 M113.3,11c1.1,0.2,2.2,0.4,3.3,0.6c0.5,0.1,0.8,0.5,0.7,1c-0.1,0.5-0.5,0.8-1,0.7
				c-1.1-0.2-2.2-0.4-3.3-0.5c-0.5-0.1-0.8-0.5-0.7-0.9C112.4,11.2,112.8,10.9,113.3,11 M106.6,10.2c1.1,0.1,2.2,0.2,3.3,0.3
				c0.5,0.1,0.8,0.5,0.7,0.9c-0.1,0.5-0.5,0.8-0.9,0.7c-1.1-0.1-2.2-0.2-3.3-0.3c-0.5,0-0.8-0.4-0.8-0.9
				C105.7,10.5,106.1,10.2,106.6,10.2 M99.9,10h0.1h0c1.1,0,2.2,0,3.2,0.1c0.5,0,0.8,0.4,0.8,0.9c0,0.5-0.4,0.8-0.9,0.8
				c-1.1,0-2.1-0.1-3.2-0.1h0l-0.1,0c-0.5,0-0.8-0.4-0.8-0.8C99,10.4,99.4,10,99.9,10 M93.2,10.3c1.1-0.1,2.2-0.1,3.4-0.2
				c0.5,0,0.8,0.3,0.9,0.8c0,0.5-0.3,0.8-0.8,0.9c-1.1,0-2.2,0.1-3.3,0.2c-0.5,0-0.9-0.3-0.9-0.8C92.4,10.7,92.7,10.3,93.2,10.3
				 M86.5,11c1.1-0.2,2.2-0.3,3.3-0.4c0.5-0.1,0.9,0.3,0.9,0.7c0.1,0.5-0.3,0.9-0.7,0.9c-1.1,0.1-2.2,0.3-3.3,0.4
				c-0.5,0.1-0.9-0.2-0.9-0.7C85.7,11.5,86,11.1,86.5,11z M79.9,12.3c1.1-0.2,2.2-0.5,3.3-0.7c0.5-0.1,0.9,0.2,1,0.7
				c0.1,0.5-0.2,0.9-0.7,1c-1.1,0.2-2.2,0.4-3.2,0.7c-0.4,0.1-0.9-0.2-1-0.6C79.1,12.8,79.4,12.4,79.9,12.3 M73.4,14
				c1.1-0.3,2.1-0.6,3.2-0.9c0.4-0.1,0.9,0.1,1,0.6c0.1,0.4-0.1,0.9-0.6,1c-1.1,0.3-2.1,0.6-3.2,0.9c-0.4,0.1-0.9-0.1-1-0.5
				C72.7,14.6,72.9,14.1,73.4,14 M67,16.2c1-0.4,2.1-0.8,3.2-1.2c0.4-0.2,0.9,0.1,1.1,0.5c0.2,0.4-0.1,0.9-0.5,1.1
				c-1,0.4-2.1,0.7-3.1,1.2c-0.4,0.2-0.9,0-1.1-0.5C66.4,16.9,66.6,16.4,67,16.2 M60.9,18.9c1-0.5,2-1,3-1.4c0.4-0.2,0.9,0,1.1,0.4
				c0.2,0.4,0,0.9-0.4,1.1c-1,0.4-2,0.9-3,1.4c-0.4,0.2-0.9,0-1.1-0.4C60.3,19.6,60.5,19.1,60.9,18.9 M55,22.1
				c1-0.6,1.9-1.1,2.9-1.6c0.4-0.2,0.9-0.1,1.1,0.3c0.2,0.4,0.1,0.9-0.3,1.1c-1,0.5-1.9,1-2.9,1.6c-0.4,0.2-0.9,0.1-1.1-0.3
				C54.4,22.8,54.6,22.3,55,22.1 M49.3,25.7c0.9-0.6,1.9-1.2,2.8-1.8c0.4-0.2,0.9-0.1,1.1,0.3c0.2,0.4,0.1,0.9-0.3,1.1
				c-0.9,0.6-1.8,1.2-2.8,1.8c-0.4,0.3-0.9,0.2-1.2-0.2C48.8,26.4,48.9,25.9,49.3,25.7 M43.9,29.6c0.9-0.7,1.8-1.4,2.7-2
				c0.4-0.3,0.9-0.2,1.2,0.2c0.3,0.4,0.2,0.9-0.2,1.2c-0.9,0.7-1.8,1.3-2.6,2c-0.4,0.3-0.9,0.2-1.2-0.1
				C43.4,30.5,43.5,29.9,43.9,29.6 M38.8,34c0.8-0.8,1.7-1.5,2.5-2.2c0.3-0.3,0.9-0.3,1.2,0.1c0.3,0.3,0.3,0.9-0.1,1.2
				c-0.8,0.7-1.7,1.5-2.5,2.2c-0.3,0.3-0.9,0.3-1.2,0C38.4,34.9,38.4,34.4,38.8,34 M34,38.8c0.8-0.8,1.5-1.6,2.3-2.4
				c0.3-0.3,0.9-0.3,1.2,0c0.3,0.3,0.3,0.9,0,1.2c-0.8,0.8-1.5,1.6-2.3,2.4c-0.3,0.3-0.8,0.4-1.2,0C33.7,39.7,33.7,39.1,34,38.8
				 M29.6,43.9c0.7-0.9,1.4-1.7,2.1-2.6c0.3-0.3,0.8-0.4,1.2-0.1c0.3,0.3,0.4,0.8,0.1,1.2c-0.7,0.8-1.4,1.7-2.1,2.5
				c-0.3,0.4-0.8,0.4-1.2,0.1C29.4,44.8,29.3,44.3,29.6,43.9 M25.6,49.3c0.6-0.9,1.3-1.8,2-2.7c0.3-0.4,0.8-0.4,1.2-0.2
				c0.4,0.3,0.4,0.8,0.2,1.2c-0.7,0.9-1.3,1.8-1.9,2.7c-0.3,0.4-0.8,0.5-1.2,0.2C25.5,50.2,25.4,49.7,25.6,49.3 M22,55
				c0.6-1,1.1-1.9,1.7-2.9c0.2-0.4,0.8-0.5,1.1-0.3c0.4,0.2,0.5,0.8,0.3,1.1c-0.6,0.9-1.2,1.9-1.7,2.8c-0.2,0.4-0.7,0.5-1.1,0.3
				C21.9,55.9,21.8,55.4,22,55 M18.9,61c0.5-1,1-2,1.5-3c0.2-0.4,0.7-0.6,1.1-0.3c0.4,0.2,0.6,0.7,0.3,1.1c-0.5,1-1,2-1.5,3
				c-0.2,0.4-0.7,0.6-1.1,0.4C18.9,61.9,18.7,61.4,18.9,61z M16.2,67.1c0.4-1,0.8-2.1,1.3-3.1c0.2-0.4,0.7-0.6,1.1-0.4
				c0.4,0.2,0.6,0.7,0.4,1.1c-0.4,1-0.9,2-1.3,3.1c-0.2,0.4-0.7,0.6-1.1,0.5C16.2,68,16,67.6,16.2,67.1 M14,73.5
				c0.3-1.1,0.7-2.1,1.1-3.2c0.2-0.4,0.6-0.7,1.1-0.5s0.7,0.6,0.5,1.1c-0.4,1-0.7,2.1-1,3.1c-0.1,0.4-0.6,0.7-1,0.6
				C14.1,74.4,13.8,73.9,14,73.5z M12.2,80c0.2-1.1,0.5-2.2,0.8-3.3c0.1-0.4,0.6-0.7,1-0.6c0.4,0.1,0.7,0.6,0.6,1
				c-0.3,1.1-0.5,2.1-0.8,3.2c-0.1,0.4-0.5,0.7-1,0.6C12.4,80.9,12.1,80.5,12.2,80 M11,86.6c0.2-1.1,0.4-2.2,0.6-3.3
				c0.1-0.5,0.5-0.8,1-0.7c0.5,0.1,0.7,0.5,0.7,1c-0.2,1.1-0.4,2.2-0.5,3.3c-0.1,0.5-0.5,0.8-0.9,0.7C11.2,87.5,10.9,87.1,11,86.6
				 M10.2,93.3c0.1-1.1,0.2-2.2,0.3-3.3c0.1-0.5,0.5-0.8,0.9-0.7c0.5,0.1,0.8,0.5,0.7,0.9c-0.1,1.1-0.2,2.2-0.3,3.3
				c0,0.5-0.4,0.8-0.9,0.8C10.6,94.2,10.2,93.8,10.2,93.3"/>
			<path clip-path="url(#SVGID_4_)" fill="#FFFFFF" d="M22,86.1l3.2,0.9l1.3-4.8c0.7-2.4,2.8-2.3,5.4-1.6l9.6,2.6l1.2-4.3l-9.8-2.6
				c-4.5-1.2-7.9-1.3-9.2,3.5L22,86.1z"/>
			<path clip-path="url(#SVGID_4_)" fill="#FFFFFF" d="M41,74.2l2.9,1.6l2-3.7c1.4-2.6,0.8-4.6-2.1-6.1L32,59.7l-3.2,6l2.9,1.6
				L33,65l8,4.2c1.8,1,2.1,1.2,1.4,2.6L41,74.2z"/>
			<path clip-path="url(#SVGID_4_)" fill="#FFFFFF" d="M35.1,54.5l2.6,2.1l3.2-3.8c1.6-1.9,3.5-0.9,5.6,0.9l7.6,6.4l2.9-3.4
				l-7.8-6.5c-3.5-3-6.7-4.5-9.8-0.7L35.1,54.5z"/>
			<polygon clip-path="url(#SVGID_4_)" fill="#FFFFFF" points="69.8,42.9 68.1,44.1 59.7,31.9 49.4,39 51.3,41.7 58,37.1 64.5,46.5 
				57.8,51.2 59.6,54 71.7,45.6 			"/>
			<polygon clip-path="url(#SVGID_4_)" fill="#FFFFFF" points="87.2,36.7 85.2,37.3 80.6,23.3 68.7,27.1 69.8,30.3 77.5,27.8 
				81.1,38.7 73.3,41.2 74.3,44.4 88.2,39.9 			"/>
			<path clip-path="url(#SVGID_4_)" fill="#FFFFFF" d="M103.9,20.8l-0.5,3.3l10.6,1.5l-2.1,14.6l4.3,0.6l2.6-17.9L103.9,20.8z
				 M101.5,38.7l4.3,0.6l1.4-9.7l-4.3-0.6L101.5,38.7z"/>
			<path clip-path="url(#SVGID_4_)" fill="#FFFFFF" d="M137.5,30.5l-3.5,7.1c-1.9,3.9-3,4.3-6,4l3.7-13.9l-4-1.9l-3.7,15.2l-5-0.8
				l-0.7,3.2c0,0,6.6,1.1,8.9,1.3c6,0.7,8.6-0.9,10.8-5.5c1.7-3.5,3.3-6.7,3.3-6.7L137.5,30.5z"/>
			<polygon clip-path="url(#SVGID_4_)" fill="#FFFFFF" points="148.4,57.2 146.8,55.8 156.7,44.8 147.4,36.5 145.2,38.9 151.3,44.4 
				143.6,52.9 137.5,47.5 135.2,49.9 146.1,59.7 			"/>
			<path clip-path="url(#SVGID_4_)" fill="#FFFFFF" d="M156.1,65.9l-3.6,3.2l2,3.2l14-11.8l-3.8-6l-2.8,1.8l1.9,3
				c0,0-2.5,2.1-3.9,3.2c-2.7,2.2-5.4,2.6-7.1-0.2l-1-1.6l-3.3,2.1l0.5,0.9c1.5,2.4,3.9,3.5,7,2.1L156.1,65.9z"/>
			<path clip-path="url(#SVGID_4_)" fill="#FFFFFF" d="M173.4,69.8l-3.2,1l3.1,10.2l-14.2,4.3l1.3,4.2l17.4-5.3L173.4,69.8z
				 M156,75.2l1.3,4.1l9.4-2.9l-1.3-4.1L156,75.2z"/>
			<path clip-path="url(#SVGID_4_)" fill="#FFFFFF" d="M59.8,165.1l-4.4-2.8l4.3-6.6l4.4,2.8L59.8,165.1z M67.7,157.7l-7.3-4.7
				l-0.9-1.4l-2.3,1.4l1.4,2l-1.5-0.2l-5.3,8.2l8.7,5.6L67.7,157.7z"/>
			<polygon clip-path="url(#SVGID_4_)" fill="#FFFFFF" points="73.8,161.4 71.4,158.6 69.4,160.3 70.7,161.9 68.7,166.5 71.4,166.9 
							"/>
			<polygon clip-path="url(#SVGID_4_)" fill="#FFFFFF" points="88.9,165 85.7,164.2 84.5,163.1 82.7,165.2 84.5,166.6 85.2,166.7 
				81.7,172.9 79.4,172.8 80.5,171.7 80.4,163.5 78,161.5 76.3,163.5 78.2,165.1 78.2,172.7 74.7,172.6 73.1,175 83.3,175.4 			"/>
			<polygon clip-path="url(#SVGID_4_)" fill="#FFFFFF" points="94.7,178.1 95.7,166.4 92.6,164.5 91.2,166.8 93,167.8 92,178.6 			
				"/>
			<polygon clip-path="url(#SVGID_4_)" fill="#FFFFFF" points="107.8,177.9 107.1,165.3 100.7,165.6 99.2,165 98.2,167.4 
				100.1,168.3 104.6,168 105.2,178.8 			"/>
			<polygon clip-path="url(#SVGID_4_)" fill="#FFFFFF" points="126.1,172.9 121.8,169.9 123.9,168.4 122.5,162.8 118.9,162.1 
				118.4,164.8 120.4,165.1 121.6,169.7 113.1,163.8 111.5,166 114.1,167.7 112.2,169.6 114.1,176.9 118.4,176.9 118.4,174.3 
				116.1,174.4 114.4,167.9 124.5,175.2 			"/>
			<polygon clip-path="url(#SVGID_4_)" fill="#FFFFFF" points="134.2,157.1 130.6,157.3 130.7,160 132.8,159.9 140.2,173.2 
				142.1,171.2 			"/>
			<polygon clip-path="url(#SVGID_4_)" fill="#FFFFFF" points="150,160.6 140.3,152.3 137.3,153.4 138,156 140.1,155.2 146.1,160.6 
				143,162.8 143.5,165.8 146.6,163.6 146.2,160.6 146.2,160.6 148.4,162.4 			"/>
			<polygon clip-path="url(#SVGID_4_)" fill="#FFFFFF" points="160.8,131 163.3,135.9 168.7,136.7 164.8,140.6 165.7,146 
				160.8,143.4 156,146 156.9,140.6 152.9,136.7 158.4,135.9 			"/>
			<polygon clip-path="url(#SVGID_4_)" fill="#FFFFFF" points="41.9,133.1 44.3,138 49.8,138.8 45.8,142.6 46.8,148.1 41.9,145.5 
				37,148.1 38,142.6 34,138.8 39.5,138 			"/>
			<polygon clip-path="url(#SVGID_4_)" fill="#71C6C6" points="69.9,82.8 69.9,82.8 69.9,82.8 			"/>
			<path clip-path="url(#SVGID_4_)" fill="#71C6C6" d="M100,52L100,52c-26.5,0-48,21.5-48,48v0c0,26.5,21.5,47.9,48,47.9h0
				c26.5,0,48-21.4,48-48v0C148,73.5,126.5,52,100,52 M146.4,100c0,25.7-20.7,46.4-46.4,46.4h0h0c-25.7,0-46.4-20.7-46.4-46.3v0v0
				c0-25.7,20.8-46.4,46.4-46.4h0C125.7,53.6,146.4,74.3,146.4,100L146.4,100z"/>
			<path clip-path="url(#SVGID_4_)" fill="#71C6C6" d="M109.4,65.8c-1.6,0-3.2,0.2-4.8,0.6l0,0l0,0h0l0,0l-0.2,0.1v-0.3
				c0-2.6-0.7-4.3-1.6-5.5c-0.8-1.2-1.8-1.7-2.4-1.9l-0.3-0.1l-0.3,0.1c-0.5,0.2-1.5,0.7-2.3,1.9c-0.8,1.2-1.5,2.9-1.5,5.5v0v0.2
				l-0.3-0.1l0,0.1c-1.6-0.4-3.2-0.5-4.8-0.5h0c-3.1,0-6.5,0.7-9.3,2l0,0c-2.8,1.4-5.3,3.3-7.3,5.8l0,0c-1,1.3-2,2.8-2.7,4.3l0,0
				c-0.7,1.5-1.3,3.1-1.6,4.8c-0.1,0.7-0.3,1.3-0.3,2v0v0c0,0.3-0.1,0.8-0.1,1.4c0,0.2,0,0.5,0.1,0.7l0,0l0,0
				c0.1,0.2,0.2,0.4,0.4,0.7c0.2,0.2,0.6,0.3,0.9,0.3c0.3,0,0.6-0.1,0.9-0.2l0,0c0.6-0.3,1.4-0.6,2-0.9l0,0l0,0
				c0.6-0.3,1.6-1.1,1.9-2.5l0,0l0-0.1c1.4-7.3,7.3-12.6,15.1-12.6h0c1.7,0,3.4,0.4,5,0.9l0.1,0.1l0,0.1l0.8,33.8l0,0.2l-11.6,0
				c-1.2,0-2.3,0.4-2.9,1.6h0c0,0,0,0,0,0c0,0,0,0,0,0h0c-0.3,0.4-0.4,0.9-0.8,1.2v0c0,0.3-0.3,0.8-0.3,1.5c0,0.3,0.1,0.7,0.4,1
				c0.3,0.3,0.8,0.5,1.2,0.4l14.1,0l0,0.2l0.7,23.7c-5.4-0.3-10.9-1.5-16-3.7l-1.2-0.5v0.2c0,0-0.1,0-0.2,0c-0.3,0-0.6,0.1-1,0.3
				c-0.4,0.2-0.8,0.6-0.8,1.1v0c0,0.3-0.2,0.5-0.2,0.7l0,0l0,0c0,0,0,0.2,0,0.4c0,0.2,0.1,0.6,0.3,0.9c0.2,0.3,0.5,0.6,1,0.8l0,0
				l0,0c6.6,3.1,13.7,4.6,20.9,4.6c7.1,0,14.3-1.5,20.9-4.6l0,0l0,0c0.4-0.2,0.8-0.5,1-0.8c0.2-0.3,0.3-0.7,0.3-0.9
				c0-0.2,0-0.3,0-0.4l0,0l0,0c-0.1-0.2-0.2-0.6-0.2-0.6h0v-0.1c0,0,0.1,0.1,0.1,0.1h0c-0.1-0.8-0.4-0.9-0.8-1.2
				c-0.4-0.2-0.8-0.3-1.1-0.3c-0.2,0-0.4,0-0.5,0l0-0.1l-0.9,0.4c-5.1,2.2-10.6,3.4-16.1,3.7l0.6-23.7v0l0.1-0.2l15,0
				c1.1,0,2.2-0.7,2.7-1.7l0-0.1l9.7-22.4h0c0.2-0.4,0.2-0.7,0.2-1.1v0v0C130.8,75.4,121.2,65.8,109.4,65.8 M103.6,106.5
				L103.6,106.5l0.4-33.7v0l0.1-0.1l0.2-0.1c1.6-0.6,3.4-0.9,5.1-0.9h0c8.4,0,15.4,6.7,15.4,15v0l0.1,0l0,0l-8.5,19.9l0,0.1l-12.8,0
				L103.6,106.5z M71.5,87L71.5,87L71.5,87L71.5,87z"/>
		</g>
	</g>
</g>
</svg>
